<svg width="13" height="16" viewBox="0 0 13 16" fill="none" xmlns="http://www.w3.org/2000/svg">
<g clip-path="url(#clip0_110_59)">
<path d="M6.50046 15.345C6.30271 15.345 6.10843 15.2931 5.93716 15.1944L4.14463 14.1344C3.87711 13.9848 4.00747 13.932 4.09594 13.9011C4.38046 13.8133 4.65288 13.6904 4.90687 13.5351C4.92813 13.5252 4.95155 13.521 4.97491 13.5227C4.99827 13.5245 5.0208 13.5321 5.04037 13.545L6.41775 14.3624C6.44339 14.3759 6.47197 14.383 6.50099 14.383C6.53 14.383 6.55858 14.3759 6.58423 14.3624L11.9555 11.2655C11.9807 11.2505 12.0015 11.2292 12.0159 11.2037C12.0303 11.1782 12.0378 11.1494 12.0377 11.1201V4.92541C12.0377 4.89567 12.0301 4.86644 12.0155 4.84052C12.0009 4.8146 11.9799 4.79286 11.9545 4.77741L6.58318 1.68319C6.55785 1.66894 6.52927 1.66145 6.5002 1.66145C6.47113 1.66145 6.44255 1.66894 6.41722 1.68319L1.04906 4.77846C1.02346 4.79359 1.0022 4.81506 0.987338 4.84081C0.97248 4.86655 0.964529 4.89569 0.964254 4.92541V11.1175C0.964328 11.1467 0.972171 11.1754 0.986982 11.2006C1.00179 11.2257 1.02304 11.2465 1.04854 11.2608L2.52172 12.1101C3.32009 12.5085 3.80905 12.0389 3.80905 11.5672V5.45357C3.80905 5.43297 3.81312 5.41257 3.82101 5.39354C3.8289 5.37451 3.84047 5.35721 3.85505 5.34264C3.86964 5.32807 3.88695 5.31652 3.90601 5.30864C3.92506 5.30075 3.94548 5.29669 3.96611 5.29669H4.64668C4.68834 5.29669 4.72828 5.31322 4.75774 5.34264C4.78719 5.37206 4.80374 5.41197 4.80374 5.45357V11.5678C4.80374 12.632 4.22368 13.2412 3.21329 13.2412C2.7774 13.2488 2.34834 13.1323 1.97622 12.9054L0.564286 12.0965C0.39288 11.9968 0.250655 11.8539 0.15181 11.6821C0.0529648 11.5103 0.000957587 11.3157 0.000980286 11.1175V4.92541C0.000470805 4.72697 0.052258 4.53189 0.151138 4.35977C0.250018 4.18766 0.392507 4.04458 0.564286 3.9449L5.93611 0.847009C6.10915 0.752444 6.30322 0.702881 6.50046 0.702881C6.6977 0.702881 6.89178 0.752444 7.06481 0.847009L12.4361 3.9449C12.6075 4.04441 12.7498 4.18708 12.8487 4.35867C12.9476 4.53026 12.9998 4.72478 12.9999 4.92279V11.1175C12.9997 11.3157 12.9475 11.5103 12.8485 11.682C12.7496 11.8537 12.6074 11.9966 12.4361 12.0965L7.06481 15.1944C6.89322 15.2932 6.69856 15.3452 6.50046 15.345Z" fill="#00D486"/>
<path d="M5.48175 9.04509C5.48175 9.00349 5.4983 8.96358 5.52775 8.93416C5.5572 8.90474 5.59715 8.88821 5.63881 8.88821H6.33351C6.37063 8.88833 6.40651 8.90158 6.43478 8.92561C6.46305 8.94964 6.48189 8.98289 6.48795 9.01947C6.59266 9.72596 6.90677 10.0821 8.32707 10.0821C9.4584 10.0821 9.94056 9.82636 9.94056 9.22655C9.94056 8.88089 9.80392 8.62413 8.04542 8.45208C6.57538 8.30671 5.66655 7.98144 5.66655 6.80796C5.66655 5.72548 6.58009 5.07965 8.11138 5.07965C9.83219 5.07965 10.684 5.67632 10.7918 6.95648C10.7934 6.97785 10.7907 6.99933 10.7837 7.0196C10.7767 7.03987 10.7656 7.05849 10.7512 7.07432C10.7367 7.09015 10.7191 7.10284 10.6996 7.11163C10.68 7.12041 10.6588 7.12509 10.6374 7.12539H9.93794C9.90285 7.1249 9.86894 7.11268 9.84161 7.09069C9.81428 7.0687 9.79512 7.03821 9.78717 7.00407C9.62016 6.26097 9.2113 6.02356 8.11191 6.02356C6.8764 6.02356 6.73296 6.45341 6.73296 6.77554C6.73296 7.16565 6.90258 7.27965 8.57051 7.49981C10.2212 7.71788 11.0054 8.02641 11.0054 9.18524C11.0054 10.3545 10.0296 11.0239 8.3276 11.0239C5.97438 11.027 5.48175 9.94925 5.48175 9.04509Z" fill="#00D486"/>
</g>
<defs>
<clipPath id="clip0_110_59">
<rect width="13" height="16" fill="white"/>
</clipPath>
</defs>
</svg>
